<svg width="32" height="32" viewBox="0 0 32 32" fill="none" xmlns="http://www.w3.org/2000/svg">
<path d="M23.2667 30.3334C21.76 30.3334 20.1734 29.9734 18.5334 29.28C16.9334 28.6 15.32 27.6667 13.7467 26.5334C12.1867 25.3867 10.68 24.1067 9.25335 22.7067C7.84002 21.28 6.56002 19.7734 5.42669 18.2267C4.28002 16.6267 3.36002 15.0267 2.70669 13.48C2.01335 11.8267 1.66669 10.2267 1.66669 8.72002C1.66669 7.68002 1.85335 6.69335 2.21335 5.77335C2.58669 4.82669 3.18669 3.94669 4.00002 3.18669C5.02669 2.17335 6.20002 1.66669 7.45335 1.66669C7.97335 1.66669 8.50669 1.78669 8.96002 2.00002C9.48002 2.24002 9.92002 2.60002 10.24 3.08002L13.3334 7.44002C13.6134 7.82669 13.8267 8.20002 13.9734 8.57335C14.1467 8.97335 14.24 9.37335 14.24 9.76002C14.24 10.2667 14.0934 10.76 13.8134 11.2267C13.6134 11.5867 13.3067 11.9734 12.92 12.36L12.0134 13.3067C12.0267 13.3467 12.04 13.3734 12.0534 13.4C12.2134 13.68 12.5334 14.16 13.1467 14.88C13.8 15.6267 14.4134 16.3067 15.0267 16.9334C15.8134 17.7067 16.4667 18.32 17.08 18.8267C17.84 19.4667 18.3334 19.7867 18.6267 19.9334L18.6 20L19.5734 19.04C19.9867 18.6267 20.3867 18.32 20.7734 18.12C21.5067 17.6667 22.44 17.5867 23.3734 17.9734C23.72 18.12 24.0934 18.32 24.4934 18.6L28.92 21.7467C29.4134 22.08 29.7734 22.5067 29.9867 23.0134C30.1867 23.52 30.28 23.9867 30.28 24.4534C30.28 25.0934 30.1334 25.7334 29.8534 26.3334C29.5734 26.9334 29.2267 27.4534 28.7867 27.9334C28.0267 28.7734 27.2 29.3734 26.24 29.76C25.32 30.1334 24.32 30.3334 23.2667 30.3334ZM7.45335 3.66669C6.72002 3.66669 6.04002 3.98669 5.38669 4.62669C4.77335 5.20002 4.34669 5.82669 4.08002 6.50669C3.80002 7.20002 3.66669 7.93335 3.66669 8.72002C3.66669 9.96002 3.96002 11.3067 4.54669 12.6934C5.14669 14.1067 5.98669 15.5734 7.05335 17.04C8.12002 18.5067 9.33335 19.9334 10.6667 21.28C12 22.6 13.44 23.8267 14.92 24.9067C16.36 25.96 17.84 26.8134 19.3067 27.4267C21.5867 28.4 23.72 28.6267 25.48 27.8934C26.16 27.6134 26.76 27.1867 27.3067 26.5734C27.6134 26.24 27.8534 25.88 28.0534 25.4534C28.2134 25.12 28.2934 24.7734 28.2934 24.4267C28.2934 24.2134 28.2534 24 28.1467 23.76C28.1067 23.68 28.0267 23.5334 27.7734 23.36L23.3467 20.2134C23.08 20.0267 22.84 19.8934 22.6134 19.8C22.32 19.68 22.2 19.56 21.7467 19.84C21.48 19.9734 21.24 20.1734 20.9734 20.44L19.96 21.44C19.44 21.9467 18.64 22.0667 18.0267 21.84L17.6667 21.68C17.12 21.3867 16.48 20.9334 15.7734 20.3334C15.1334 19.7867 14.44 19.1467 13.6 18.32C12.9467 17.6534 12.2934 16.9467 11.6134 16.16C10.9867 15.4267 10.5334 14.8 10.2534 14.28L10.0934 13.88C10.0134 13.5734 9.98669 13.4 9.98669 13.2134C9.98669 12.7334 10.16 12.3067 10.4934 11.9734L11.4934 10.9334C11.76 10.6667 11.96 10.4134 12.0934 10.1867C12.2 10.0134 12.24 9.86669 12.24 9.73335C12.24 9.62669 12.2 9.46669 12.1334 9.30669C12.04 9.09335 11.8934 8.85335 11.7067 8.60002L8.61335 4.22669C8.48002 4.04002 8.32002 3.90669 8.12002 3.81335C7.90669 3.72002 7.68002 3.66669 7.45335 3.66669Z" fill="#F3F7FE"/>
</svg>
