<svg width="32" height="32" viewBox="0 0 32 32" fill="none" xmlns="http://www.w3.org/2000/svg">
<path d="M5.24001 22.1733C4.98668 22.1733 4.73335 22.08 4.53335 21.88C4.14668 21.4933 4.14668 20.8533 4.53335 20.4667L20.4667 4.53333C20.8533 4.14667 21.4933 4.14667 21.88 4.53333C22.2667 4.92 22.2667 5.56 21.88 5.94667L5.94668 21.8933C5.76001 22.08 5.49335 22.1733 5.24001 22.1733Z" fill="#F3F7FE"/>
<path d="M14.8 25.3733C14.5467 25.3733 14.2933 25.28 14.0933 25.08C13.7067 24.6933 13.7067 24.0533 14.0933 23.6667L15.6933 22.0667C16.08 21.68 16.72 21.68 17.1067 22.0667C17.4933 22.4533 17.4933 23.0933 17.1067 23.48L15.5067 25.08C15.32 25.2667 15.0667 25.3733 14.8 25.3733Z" fill="#F3F7FE"/>
<path d="M18.3867 21.7867C18.1333 21.7867 17.88 21.6933 17.68 21.4933C17.2933 21.1067 17.2933 20.4667 17.68 20.08L20.8667 16.8933C21.2533 16.5067 21.8933 16.5067 22.28 16.8933C22.6667 17.28 22.6667 17.92 22.28 18.3067L19.0933 21.4933C18.9067 21.68 18.64 21.7867 18.3867 21.7867Z" fill="#F3F7FE"/>
<path d="M14.8 30.3333C13.4933 30.3333 12.1867 29.5333 10.6 27.9467L4.05332 21.4C0.866654 18.2133 0.879987 16.16 4.09332 12.9467L12.9467 4.09334C16.16 0.880002 18.2133 0.866669 21.4 4.05334L27.9467 10.6C31.1333 13.7867 31.12 15.84 27.9067 19.0533L19.0533 27.9067C17.44 29.52 16.12 30.3333 14.8 30.3333ZM17.2 3.66667C16.5067 3.66667 15.6267 4.24 14.36 5.50667L5.50665 14.36C4.23999 15.6267 3.66665 16.5067 3.66665 17.1867C3.66665 17.88 4.19999 18.72 5.46665 19.9867L12.0133 26.5333C13.28 27.8 14.1067 28.3333 14.8 28.3333C14.8 28.3333 14.8 28.3333 14.8133 28.3333C15.5067 28.3333 16.3733 27.76 17.64 26.4933L26.4933 17.64C27.76 16.3733 28.3333 15.4933 28.3333 14.8133C28.3333 14.12 27.8 13.28 26.5333 12.0133L19.9867 5.46667C18.7333 4.2 17.8933 3.66667 17.2 3.66667Z" fill="#F3F7FE"/>
<path d="M29.3334 30.3333H2.66669C2.12002 30.3333 1.66669 29.88 1.66669 29.3333C1.66669 28.7867 2.12002 28.3333 2.66669 28.3333H29.3334C29.88 28.3333 30.3334 28.7867 30.3334 29.3333C30.3334 29.88 29.88 30.3333 29.3334 30.3333Z" fill="#F3F7FE"/>
</svg>
