<svg width="32" height="32" viewBox="0 0 32 32" fill="none" xmlns="http://www.w3.org/2000/svg">
<path d="M12 23.6667C11.8533 23.6667 11.6933 23.6267 11.56 23.56C10.5333 23.04 9.65334 22.2667 9.01334 21.3067C8.48001 20.5067 8.48001 19.48 9.01334 18.68C9.65334 17.72 10.5333 16.9467 11.56 16.44C12.0533 16.1867 12.6533 16.4 12.9067 16.8933C13.16 17.3867 12.96 17.9867 12.4533 18.24C11.7333 18.6 11.12 19.1467 10.68 19.8133C10.6 19.9333 10.6 20.0933 10.68 20.2267C11.12 20.8933 11.7333 21.44 12.4533 21.8C12.9467 22.0533 13.1467 22.6533 12.9067 23.1467C12.72 23.4667 12.36 23.6667 12 23.6667Z" fill="#F3F7FE"/>
<path d="M20.28 23.6667C19.9067 23.6667 19.56 23.4667 19.3867 23.12C19.1333 22.6267 19.3333 22.0267 19.84 21.7733C20.56 21.4133 21.1733 20.8667 21.6133 20.2C21.6933 20.08 21.6933 19.92 21.6133 19.7867C21.1733 19.12 20.56 18.5733 19.84 18.2133C19.3467 17.96 19.1467 17.36 19.3867 16.8667C19.64 16.3733 20.24 16.1733 20.7333 16.4133C21.76 16.9333 22.64 17.7067 23.28 18.6667C23.8133 19.4667 23.8133 20.4933 23.28 21.2933C22.64 22.2533 21.76 23.0267 20.7333 23.5333C20.5733 23.6267 20.4267 23.6667 20.28 23.6667Z" fill="#F3F7FE"/>
<path d="M20 30.3333H12C4.76002 30.3333 1.66669 27.24 1.66669 20V12C1.66669 4.76001 4.76002 1.66667 12 1.66667H20C27.24 1.66667 30.3334 4.76001 30.3334 12V20C30.3334 27.24 27.24 30.3333 20 30.3333ZM12 3.66667C5.85335 3.66667 3.66669 5.85334 3.66669 12V20C3.66669 26.1467 5.85335 28.3333 12 28.3333H20C26.1467 28.3333 28.3334 26.1467 28.3334 20V12C28.3334 5.85334 26.1467 3.66667 20 3.66667H12Z" fill="#F3F7FE"/>
<path d="M2.97333 11.68C2.42666 11.68 1.97333 11.2267 1.97333 10.68C1.97333 10.1333 2.41333 9.68001 2.97333 9.68001L28.6 9.66667C29.1467 9.66667 29.6 10.12 29.6 10.6667C29.6 11.2133 29.16 11.6667 28.6 11.6667L2.97333 11.68Z" fill="#F3F7FE"/>
</svg>
