<svg width="32" height="32" viewBox="0 0 32 32" fill="none" xmlns="http://www.w3.org/2000/svg">
<path d="M20.6667 25.5334H8.66669C4.21335 25.5334 1.66669 22.9867 1.66669 18.5334V11.3333C1.66669 6.88 4.21335 4.33334 8.66669 4.33334H12.2667C12.5867 4.33334 12.8934 4.49341 13.08 4.74675C13.2667 5.00008 13.32 5.34666 13.2134 5.65332C13.0667 6.06666 13 6.52 13 7V12.2C13 13.2134 13.3067 14.0533 13.8934 14.64C14.48 15.2266 15.32 15.5334 16.3334 15.5334C16.88 15.5334 17.3334 15.9867 17.3334 16.5334V18.1333L20.9734 15.6934C21.1334 15.5867 21.3334 15.52 21.5334 15.52H25C25.48 15.52 25.9334 15.4533 26.3467 15.3066C26.6534 15.2 26.9867 15.2533 27.2534 15.4399C27.52 15.6266 27.6667 15.9333 27.6667 16.2533V18.52C27.6667 22.9867 25.12 25.5334 20.6667 25.5334ZM8.66669 6.33334C5.30669 6.33334 3.66669 7.97334 3.66669 11.3333V18.5334C3.66669 21.8934 5.30669 23.5334 8.66669 23.5334H20.6667C24.0267 23.5334 25.6667 21.8934 25.6667 18.5334V17.4933C25.4534 17.52 25.2267 17.5334 25 17.5334H21.84L18.24 19.9333C17.6534 20.3066 16.92 20.3467 16.32 20.0133C15.72 19.6933 15.3467 19.0667 15.3467 18.3867V17.4533C14.2267 17.28 13.24 16.7867 12.4934 16.0534C11.5467 15.1067 11.0134 13.7334 11.0134 12.2V7C11.0134 6.77334 11.0267 6.54667 11.04 6.33334H8.66669Z" fill="#F3F7FE"/>
<path d="M17.2 20.2401C16.8933 20.2401 16.5867 20.16 16.3067 20.0133C15.7067 19.6933 15.3333 19.0667 15.3333 18.3867V17.4533C14.2133 17.28 13.2267 16.7867 12.48 16.0534C11.5333 15.1067 11 13.7334 11 12.2V7C11 6.29333 11.1067 5.62668 11.32 5.01334C12.0667 2.92001 13.9333 1.66666 16.3333 1.66666H25C28.1333 1.66666 30.3333 3.85333 30.3333 7V12.2C30.3333 14.6 29.0933 16.4667 27 17.2134C26.36 17.4267 25.6933 17.5334 25 17.5334H21.84L18.24 19.9333C17.92 20.1466 17.56 20.2401 17.2 20.2401ZM16.3333 3.66666C14.8 3.66666 13.6667 4.4 13.2133 5.66666C13.08 6.06666 13 6.52 13 7V12.2C13 13.2134 13.3067 14.0533 13.8933 14.64C14.48 15.2266 15.32 15.5334 16.3333 15.5334C16.88 15.5334 17.3333 15.9867 17.3333 16.5334V18.1333L20.9733 15.6934C21.1333 15.5867 21.3333 15.52 21.5333 15.52H25C25.48 15.52 25.9333 15.4533 26.3467 15.3066C27.6133 14.8533 28.3333 13.72 28.3333 12.1867V6.98665C28.3333 4.93332 27.0533 3.65332 25 3.65332H16.3333V3.66666Z" fill="#F3F7FE"/>
<path d="M19.4665 30.3333H9.86652C9.31985 30.3333 8.86652 29.88 8.86652 29.3333C8.86652 28.7867 9.31985 28.3333 9.86652 28.3333H19.4665C20.0132 28.3333 20.4665 28.7867 20.4665 29.3333C20.4665 29.88 20.0132 30.3333 19.4665 30.3333Z" fill="#F3F7FE"/>
<path d="M14.6667 30.3333C14.12 30.3333 13.6667 29.88 13.6667 29.3333V24.5334C13.6667 23.9867 14.12 23.5334 14.6667 23.5334C15.2134 23.5334 15.6667 23.9867 15.6667 24.5334V29.3333C15.6667 29.88 15.2134 30.3333 14.6667 30.3333Z" fill="#F3F7FE"/>
<path d="M20.5866 10.6667C20.0266 10.6667 19.5866 10.2133 19.5866 9.66666C19.5866 9.12 20.0399 8.66666 20.5866 8.66666C21.1333 8.66666 21.5866 9.12 21.5866 9.66666C21.5866 10.2133 21.1333 10.6667 20.5866 10.6667Z" fill="#23313A"/>
<path d="M24.3333 10.6667C23.7733 10.6667 23.3333 10.2133 23.3333 9.66666C23.3333 9.12 23.7866 8.66666 24.3333 8.66666C24.88 8.66666 25.3333 9.12 25.3333 9.66666C25.3333 10.2133 24.88 10.6667 24.3333 10.6667Z" fill="#23313A"/>
<path d="M16.8268 10.6667C16.2668 10.6667 15.8268 10.2133 15.8268 9.66666C15.8268 9.12 16.2802 8.66666 16.8268 8.66666C17.3735 8.66666 17.8268 9.12 17.8268 9.66666C17.8268 10.2133 17.3868 10.6667 16.8268 10.6667Z" fill="#23313A"/>
</svg>
