<svg width="56" height="56" viewBox="0 0 56 56" fill="none" xmlns="http://www.w3.org/2000/svg">
<path d="M44.2695 25.7543C44.2529 26.0659 44.1819 26.362 44.0657 26.6332L43.9957 26.7841L43.8158 27.1729L43.6535 27.524L40.8281 33.6244L40.811 33.6607L40.8079 33.6679C40.7726 33.7535 40.7508 33.8458 40.7457 33.9432C40.7446 33.9583 40.7446 33.9728 40.7446 33.9878V37.4412H40.7441C40.7441 37.4764 40.7436 37.5122 40.7415 37.548C40.7358 37.6527 40.7223 37.7554 40.7011 37.8549C40.5663 38.4917 40.1276 39.0102 39.55 39.2653C39.2689 39.3892 38.9542 39.451 38.6265 39.4333C38.3626 39.4193 38.1131 39.355 37.8871 39.2508C37.3826 39.0185 36.9947 38.5855 36.8205 38.0613C36.7645 37.8918 36.7308 37.7124 36.723 37.5267V33.8333C36.723 33.7146 36.7261 33.5953 36.7323 33.475C36.7443 33.2505 36.7671 33.0296 36.8008 32.8118C36.8905 32.2285 37.0559 31.6716 37.2861 31.1505L37.3784 30.9524L38.8111 27.859L38.81 27.8584C38.8494 27.7765 38.8733 27.6852 38.8785 27.5888C38.8987 27.2139 38.627 26.8904 38.2604 26.8349L38.2241 26.8302H38.2236L37.9996 26.8017L24.1344 25.032L21.2929 24.6695L21.2603 24.6654C19.9593 24.4932 18.957 23.4495 18.8305 22.1713C18.7926 21.771 18.7734 21.3655 18.7734 20.9564C18.7734 13.8268 24.5534 8.04739 31.683 8.04739C37.633 8.04739 42.6429 12.0727 44.1373 17.5487C44.1684 17.6628 44.198 17.7774 44.226 17.8925C44.2457 18.0071 44.256 18.1253 44.256 18.2461C44.256 19.4019 43.3191 20.3394 42.1628 20.3394C41.1926 20.3394 40.376 19.6783 40.139 18.7823C40.1333 18.7579 40.1271 18.7335 40.1208 18.7097C39.174 14.9504 35.77 12.1675 31.7172 12.1675C27.37 12.1675 23.7699 15.3689 23.1471 19.5435C23.143 19.5684 23.1394 19.5932 23.1357 19.6187C23.1337 19.6352 23.1311 19.6518 23.129 19.6689C23.1274 19.685 23.1264 19.7011 23.1254 19.7172C23.1005 20.1854 23.4137 20.5935 23.8534 20.7096L24.1105 20.7423L24.2028 20.7542L40.1618 22.791L41.9637 23.0207L41.9865 23.0238C42.9359 23.1487 43.7157 23.771 44.0688 24.6058C44.2177 24.9578 44.2908 25.3478 44.2695 25.7543Z" fill="#06A4FF"/>
<path d="M32.5028 5.61087C32.4992 5.68139 32.4385 5.73584 32.3675 5.73169C32.1217 5.72132 31.8743 5.71613 31.626 5.71613C22.0443 5.71613 14.2763 13.4841 14.2763 23.0658C14.2763 30.3235 18.732 36.5405 25.0579 39.1295C25.1056 39.1502 25.1378 39.1984 25.1341 39.2529C25.1305 39.3234 25.0698 39.3778 24.9988 39.3737C24.9946 39.3737 24.9905 39.3732 24.9863 39.3727C24.9863 39.3727 24.9863 39.3727 24.9858 39.3727C24.9791 39.3711 24.9723 39.3695 24.9656 39.368C24.9646 39.3675 24.963 39.3669 24.9615 39.3664C17.3818 37.5086 11.7584 30.6693 11.7584 22.5167C11.7584 12.9349 19.5263 5.16702 29.1081 5.16702C30.2312 5.16702 31.3299 5.27436 32.3934 5.47813C32.4556 5.48695 32.5028 5.54762 32.5028 5.61087Z" fill="#FFD429"/>
<path d="M28.9209 43.9838C28.4024 43.9838 27.915 43.6634 27.7273 43.148C27.4872 42.4889 27.8273 41.7599 28.4864 41.5204L34.3762 39.3768C35.0353 39.1367 35.7643 39.4769 36.0039 40.1359C36.2439 40.7949 35.9038 41.524 35.2447 41.7635L29.3549 43.9071C29.2118 43.9595 29.065 43.9838 28.9209 43.9838Z" fill="white"/>
<path d="M31.9739 50.8335C31.4554 50.8335 30.9679 50.513 30.7802 49.9976C30.5402 49.3386 30.8803 48.6095 31.5394 48.37L37.4292 46.2264C38.0882 45.9864 38.8173 46.3265 39.0568 46.9855C39.2969 47.6446 38.9568 48.3736 38.2977 48.6132L32.4079 50.7567C32.2648 50.8086 32.118 50.8335 31.9739 50.8335Z" fill="white"/>
<path d="M29.5757 47.7208C29.0572 47.7208 28.5698 47.4004 28.3821 46.885C28.142 46.2259 28.4822 45.4969 29.1412 45.2573L38.0981 41.9974C38.7571 41.7573 39.4862 42.0975 39.7257 42.7565C39.9658 43.4156 39.6257 44.1446 38.9666 44.3841L30.0097 47.6441C29.8666 47.6959 29.7199 47.7208 29.5757 47.7208Z" fill="white"/>
</svg>
