<svg width="32" height="32" viewBox="0 0 32 32" fill="none" xmlns="http://www.w3.org/2000/svg">
<path d="M13.9067 24.4933C13.7067 24.4933 13.52 24.44 13.3467 24.32C13.0667 24.1333 12.9067 23.8267 12.9067 23.4933C12.9067 23.2933 12.8933 23.08 12.8667 22.8667C12.7467 21.92 12.32 21.0933 11.6 20.3733C10.88 19.6533 9.98667 19.2 9.02667 19.08C8.86667 19.0667 8.64 19.0533 8.42667 19.0667C8.08 19.0933 7.76 18.9467 7.56 18.6667C7.36 18.4 7.30667 18.04 7.41333 17.72C7.61333 17.1733 7.90667 16.68 8.25333 16.28L10.3067 13.6933C13.84 9.28 21 3.97333 26.24 1.86667C27.36 1.44 28.5333 1.69333 29.3467 2.49333C30.1867 3.33333 30.44 4.53333 30 5.62667C27.8933 10.88 22.6 18.0267 18.1867 21.56L15.56 23.6667C15.0667 24.0267 14.6667 24.2533 14.2667 24.4133C14.16 24.4667 14.0267 24.4933 13.9067 24.4933ZM10.0533 17.2533C11.1733 17.5467 12.1733 18.1333 13.0133 18.9733C13.8533 19.8 14.4133 20.76 14.6933 21.8267L16.9467 20.0133C21.1333 16.6667 26.16 9.88 28.1467 4.89333C28.3467 4.4 28.0667 4.05333 27.9333 3.93333C27.84 3.84 27.4933 3.54667 26.96 3.74667C22 5.74667 15.2133 10.7733 11.8533 14.96L10.0533 17.2533Z" fill="#F3F7FE"/>
<path d="M5.44003 30.3333C4.44003 30.3333 3.48003 29.9333 2.76003 29.2133C1.93336 28.3867 1.53336 27.24 1.66669 26.0667L2.02669 22.7867C2.37336 19.5333 5.04003 17.12 8.34669 17.0533C8.60003 17.04 8.93336 17.0533 9.24003 17.08C10.6934 17.2667 11.9867 17.92 13.0267 18.96C14.0534 19.9867 14.6667 21.2133 14.8534 22.5867C14.8934 22.88 14.92 23.2 14.92 23.48C14.92 25.24 14.24 26.88 13.0134 28.12C11.9867 29.1333 10.6667 29.76 9.17336 29.9467L5.88002 30.3067C5.73336 30.32 5.58669 30.3333 5.44003 30.3333ZM8.60003 19.0667C8.54669 19.0667 8.48003 19.0667 8.42669 19.0667C6.41336 19.1067 4.28003 20.48 4.01336 23.0133L3.65336 26.2933C3.58669 26.8533 3.78669 27.4 4.17336 27.8C4.56003 28.1867 5.10669 28.3867 5.65336 28.32L8.93336 27.96C9.96003 27.8267 10.88 27.4 11.5734 26.7067C12.4267 25.8533 12.9067 24.7067 12.9067 23.48C12.9067 23.28 12.8934 23.0667 12.8667 22.8533C12.7467 21.9067 12.32 21.08 11.6 20.36C10.88 19.64 9.98669 19.1867 9.02669 19.0667C8.92003 19.0667 8.76003 19.0667 8.60003 19.0667Z" fill="#F3F7FE"/>
<path d="M18.9867 20.2933C18.44 20.2933 17.9867 19.84 17.9867 19.2933C17.9867 16.36 15.6 13.9867 12.68 13.9867C12.1333 13.9867 11.68 13.5333 11.68 12.9867C11.68 12.44 12.12 11.9867 12.6667 11.9867C16.6933 11.9867 19.9733 15.2667 19.9733 19.2933C19.9867 19.8533 19.5333 20.2933 18.9867 20.2933Z" fill="#F3F7FE"/>
<path d="M20.9067 30.3067C19.6667 30.3067 18.4267 29.72 17.24 28.5333C16.8533 28.1467 16.8533 27.5067 17.24 27.12C17.6267 26.7333 18.2667 26.7333 18.6533 27.12C20.2267 28.6933 21.5733 28.6933 23.1467 27.12L27.0933 23.1733C28.68 21.5867 28.68 20.24 27.0933 18.6667L26.1067 17.6933C25.72 17.3067 25.7067 16.6667 26.0933 16.28C26.48 15.88 27.12 15.88 27.5067 16.2667L28.4933 17.24C30.8667 19.6133 30.8667 22.2133 28.4933 24.5867L24.5467 28.5333C23.3867 29.7067 22.1467 30.3067 20.9067 30.3067Z" fill="#F3F7FE"/>
<path d="M4.14666 15.0133C3.89333 15.0133 3.62666 14.92 3.43999 14.72C1.09333 12.36 1.09333 9.74667 3.43999 7.38667L7.38666 3.44C9.73333 1.09333 12.3733 1.09333 14.72 3.44L15.7067 4.42667C16.0933 4.81333 16.0933 5.45333 15.7067 5.84C15.32 6.22667 14.68 6.22667 14.2933 5.84L13.2933 4.85333C11.72 3.28 10.36 3.28 8.79999 4.85333L4.85333 8.8C3.27999 10.3867 3.27999 11.7333 4.85333 13.32C5.23999 13.7067 5.23999 14.3467 4.85333 14.7333C4.65333 14.92 4.39999 15.0133 4.14666 15.0133Z" fill="#F3F7FE"/>
<path d="M10.0667 11.0667C9.81334 11.0667 9.56001 10.9733 9.36001 10.7733C8.97334 10.3867 8.97334 9.74667 9.36001 9.36L14.2933 4.42667C14.68 4.04 15.32 4.04 15.7067 4.42667C16.0933 4.81333 16.0933 5.45333 15.7067 5.84L10.7733 10.7733C10.5733 10.9733 10.32 11.0667 10.0667 11.0667Z" fill="#F3F7FE"/>
<path d="M22.88 21.9067C22.6266 21.9067 22.3733 21.8133 22.1733 21.6133C21.7866 21.2267 21.7866 20.5867 22.1733 20.2L26.12 16.2533C26.5066 15.8667 27.1466 15.8667 27.5333 16.2533C27.92 16.64 27.92 17.28 27.5333 17.6667L23.5866 21.6133C23.4 21.8133 23.1466 21.9067 22.88 21.9067Z" fill="#23313A"/>
</svg>
