<svg width="32" height="32" viewBox="0 0 32 32" fill="none" xmlns="http://www.w3.org/2000/svg">
<path d="M8.69332 21.68C8.43999 21.68 8.18666 21.5867 7.98666 21.3867C7.59999 21 7.59999 20.36 7.98666 19.9734L12.0533 15.9067C12.44 15.52 13.08 15.52 13.4667 15.9067C13.8533 16.2934 13.8533 16.9334 13.4667 17.32L9.39999 21.3867C9.19999 21.5734 8.94666 21.68 8.69332 21.68Z" fill="#F3F7FE"/>
<path d="M12.8 21.72C12.5467 21.72 12.2934 21.6266 12.0934 21.4266L8.02669 17.3599C7.64003 16.9733 7.64003 16.3333 8.02669 15.9466C8.41336 15.5599 9.05336 15.5599 9.44003 15.9466L13.5067 20.0133C13.8934 20.3999 13.8934 21.0399 13.5067 21.4266C13.3067 21.6266 13.0534 21.72 12.8 21.72Z" fill="#F3F7FE"/>
<path d="M18.0533 20C17.32 20 16.7067 19.4 16.7067 18.6667C16.7067 17.9334 17.2933 17.3334 18.0267 17.3334H18.0533C18.7867 17.3334 19.3867 17.9334 19.3867 18.6667C19.3867 19.4 18.8 20 18.0533 20Z" fill="#F3F7FE"/>
<path d="M23.3067 20C22.5734 20 21.96 19.4 21.96 18.6667C21.96 17.9334 22.5467 17.3334 23.28 17.3334H23.3067C24.04 17.3334 24.64 17.9334 24.64 18.6667C24.64 19.4 24.04 20 23.3067 20Z" fill="#F3F7FE"/>
<path d="M20.6666 22.6267C19.9333 22.6267 19.3333 22.04 19.3333 21.3067V21.28C19.3333 20.5467 19.9333 19.9467 20.6666 19.9467C21.4 19.9467 22 20.5467 22 21.28C22 22.0133 21.4133 22.6267 20.6666 22.6267Z" fill="#F3F7FE"/>
<path d="M20.6666 17.3734C19.9333 17.3734 19.3333 16.7867 19.3333 16.0534V16.0267C19.3333 15.2934 19.9333 14.6934 20.6666 14.6934C21.4 14.6934 22 15.2934 22 16.0267C22 16.76 21.4133 17.3734 20.6666 17.3734Z" fill="#F3F7FE"/>
<path d="M20 30.3333H12C4.76002 30.3333 1.66669 27.24 1.66669 20V17.3333C1.66669 10.0933 4.76002 7 12 7H20C27.24 7 30.3334 10.0933 30.3334 17.3333V20C30.3334 27.24 27.24 30.3333 20 30.3333ZM12 9C5.85335 9 3.66669 11.1867 3.66669 17.3333V20C3.66669 26.1467 5.85335 28.3333 12 28.3333H20C26.1467 28.3333 28.3334 26.1467 28.3334 20V17.3333C28.3334 11.1867 26.1467 9 20 9H12Z" fill="#F3F7FE"/>
<path d="M17.32 8.99996H15.9867C14.7067 8.99996 13.6533 7.94663 13.6533 6.66663C13.6533 5.38663 14.6933 4.33329 15.9733 4.33329C16.1867 4.33329 16.3333 4.18663 16.3467 3.99996L16.36 2.65329C16.3733 2.10663 16.8133 1.66663 17.36 1.66663H17.3733C17.92 1.67996 18.3733 2.13329 18.36 2.67996L18.3467 4.02663C18.3333 5.29329 17.28 6.33329 16.0133 6.33329C15.8 6.33329 15.6667 6.47996 15.6667 6.66663C15.6667 6.85329 15.8133 6.99996 16 6.99996H17.3333C17.88 6.99996 18.3333 7.45329 18.3333 7.99996C18.3333 8.54663 17.8667 8.99996 17.32 8.99996Z" fill="#F3F7FE"/>
</svg>
