<svg width="32" height="32" viewBox="0 0 32 32" fill="none" xmlns="http://www.w3.org/2000/svg">
<path d="M8.69332 21.68C8.43999 21.68 8.18666 21.5867 7.98666 21.3867C7.59999 21 7.59999 20.36 7.98666 19.9733L12.0533 15.9067C12.44 15.52 13.08 15.52 13.4667 15.9067C13.8533 16.2933 13.8533 16.9333 13.4667 17.32L9.39999 21.3867C9.19999 21.5733 8.94666 21.68 8.69332 21.68Z" fill="#F3F7FE"/>
<path d="M12.8 21.72C12.5467 21.72 12.2934 21.6267 12.0934 21.4267L8.02669 17.36C7.64003 16.9733 7.64003 16.3333 8.02669 15.9467C8.41336 15.56 9.05336 15.56 9.44003 15.9467L13.5067 20.0133C13.8934 20.4 13.8934 21.04 13.5067 21.4267C13.3067 21.6267 13.0534 21.72 12.8 21.72Z" fill="#F3F7FE"/>
<path d="M18.0533 20C17.32 20 16.7067 19.4 16.7067 18.6667C16.7067 17.9333 17.2933 17.3333 18.0267 17.3333H18.0533C18.7867 17.3333 19.3867 17.9333 19.3867 18.6667C19.3867 19.4 18.8 20 18.0533 20Z" fill="#F3F7FE"/>
<path d="M23.3067 20C22.5734 20 21.96 19.4 21.96 18.6667C21.96 17.9333 22.5467 17.3333 23.28 17.3333H23.3067C24.04 17.3333 24.64 17.9333 24.64 18.6667C24.64 19.4 24.04 20 23.3067 20Z" fill="#F3F7FE"/>
<path d="M20.6666 22.6267C19.9333 22.6267 19.3333 22.04 19.3333 21.3067V21.28C19.3333 20.5467 19.9333 19.9467 20.6666 19.9467C21.4 19.9467 22 20.5467 22 21.28C22 22.0133 21.4133 22.6267 20.6666 22.6267Z" fill="#F3F7FE"/>
<path d="M20.6666 17.3733C19.9333 17.3733 19.3333 16.7867 19.3333 16.0533V16.0267C19.3333 15.2933 19.9333 14.6933 20.6666 14.6933C21.4 14.6933 22 15.2933 22 16.0267C22 16.76 21.4133 17.3733 20.6666 17.3733Z" fill="#F3F7FE"/>
<path d="M20 30.3333H12C4.76002 30.3333 1.66669 27.24 1.66669 20V17.3333C1.66669 10.0933 4.76002 7 12 7H20C27.24 7 30.3334 10.0933 30.3334 17.3333V20C30.3334 27.24 27.24 30.3333 20 30.3333ZM12 9C5.85335 9 3.66669 11.1867 3.66669 17.3333V20C3.66669 26.1467 5.85335 28.3333 12 28.3333H20C26.1467 28.3333 28.3334 26.1467 28.3334 20V17.3333C28.3334 11.1867 26.1467 9 20 9H12Z" fill="#F3F7FE"/>
<path d="M17.32 9.00001H15.9867C14.7067 9.00001 13.6533 7.94667 13.6533 6.66667C13.6533 5.38667 14.6933 4.33334 15.9733 4.33334C16.1867 4.33334 16.3333 4.18667 16.3467 4.00001L16.36 2.65334C16.3733 2.10667 16.8133 1.66667 17.36 1.66667H17.3733C17.92 1.68001 18.3733 2.13334 18.36 2.68001L18.3467 4.02667C18.3333 5.29334 17.28 6.33334 16.0133 6.33334C15.8 6.33334 15.6667 6.48001 15.6667 6.66667C15.6667 6.85334 15.8133 7.00001 16 7.00001H17.3333C17.88 7.00001 18.3333 7.45334 18.3333 8.00001C18.3333 8.54667 17.8667 9.00001 17.32 9.00001Z" fill="#F3F7FE"/>
</svg>
