<svg width="32" height="32" viewBox="0 0 32 32" fill="none" xmlns="http://www.w3.org/2000/svg">
<path d="M23.72 30.3333H8.28002C4.62669 30.3333 1.66669 27.36 1.66669 23.7067V13.8267C1.66669 12.0133 2.78669 9.73332 4.22669 8.61332L11.4134 3.01332C13.5734 1.33332 17.0267 1.25332 19.2667 2.82665L27.5067 8.59999C29.0934 9.70665 30.3334 12.08 30.3334 14.0133V23.72C30.3334 27.36 27.3734 30.3333 23.72 30.3333ZM12.64 4.58665L5.45335 10.1867C4.50669 10.9333 3.66669 12.6267 3.66669 13.8267V23.7067C3.66669 26.2533 5.73335 28.3333 8.28002 28.3333H23.72C26.2667 28.3333 28.3334 26.2667 28.3334 23.72V14.0133C28.3334 12.7333 27.4134 10.96 26.36 10.24L18.12 4.46665C16.6 3.39999 14.0934 3.45332 12.64 4.58665Z" fill="#F3F7FE"/>
<path d="M16 25C15.4533 25 15 24.5467 15 24V20C15 19.4533 15.4533 19 16 19C16.5467 19 17 19.4533 17 20V24C17 24.5467 16.5467 25 16 25Z" fill="#F3F7FE"/>
</svg>
