<svg width="32" height="32" viewBox="0 0 32 32" fill="none" xmlns="http://www.w3.org/2000/svg">
<path d="M15.72 15.84C15 15.84 14.2667 15.7067 13.6933 15.4534L5.82666 11.96C3.82666 11.0667 3.53333 9.86671 3.53333 9.21337C3.53333 8.56004 3.82666 7.36004 5.82666 6.46671L13.6933 2.97337C14.8533 2.45337 16.6 2.45337 17.76 2.97337L25.64 6.46671C27.6267 7.34671 27.9333 8.56004 27.9333 9.21337C27.9333 9.86671 27.64 11.0667 25.64 11.96L17.76 15.4534C17.1733 15.72 16.4533 15.84 15.72 15.84ZM15.72 4.58671C15.2667 4.58671 14.8267 4.65337 14.5067 4.80004L6.63999 8.29337C5.82666 8.66671 5.53333 9.04004 5.53333 9.21337C5.53333 9.38671 5.82666 9.77337 6.62666 10.1334L14.4933 13.6267C15.1333 13.9067 16.2933 13.9067 16.9333 13.6267L24.8133 10.1334C25.6267 9.77337 25.92 9.38671 25.92 9.21337C25.92 9.04004 25.6267 8.65337 24.8133 8.29337L16.9467 4.80004C16.6267 4.66671 16.1733 4.58671 15.72 4.58671Z" fill="#F3F7FE"/>
<path d="M16 22.7866C15.4933 22.7866 14.9867 22.68 14.5067 22.4666L5.45333 18.44C4.08 17.84 3 16.1733 3 14.6666C3 14.12 3.45333 13.6666 4 13.6666C4.54667 13.6666 5 14.12 5 14.6666C5 15.4 5.6 16.32 6.26667 16.6266L15.32 20.6533C15.7467 20.84 16.24 20.84 16.68 20.6533L25.7333 16.6266C26.4 16.3333 27 15.4 27 14.6666C27 14.12 27.4533 13.6666 28 13.6666C28.5467 13.6666 29 14.12 29 14.6666C29 16.1733 27.92 17.84 26.5467 18.4533L17.4933 22.48C17.0133 22.68 16.5067 22.7866 16 22.7866Z" fill="#F3F7FE"/>
<path d="M16 29.4533C15.4933 29.4533 14.9867 29.3466 14.5067 29.1333L5.45333 25.1066C3.96 24.4399 3 22.9599 3 21.3199C3 20.7733 3.45333 20.3199 4 20.3199C4.54667 20.3199 5 20.7866 5 21.3333C5 22.1733 5.49333 22.9466 6.26667 23.2933L15.32 27.3199C15.7467 27.5066 16.24 27.5066 16.68 27.3199L25.7333 23.2933C26.5067 22.9466 27 22.1866 27 21.3333C27 20.7866 27.4533 20.3333 28 20.3333C28.5467 20.3333 29 20.7866 29 21.3333C29 22.9733 28.04 24.4533 26.5467 25.1199L17.4933 29.1466C17.0133 29.3466 16.5067 29.4533 16 29.4533Z" fill="#F3F7FE"/>
</svg>
