<svg width="32" height="32" viewBox="0 0 32 32" fill="none" xmlns="http://www.w3.org/2000/svg">
<path d="M15.72 15.84C15 15.84 14.2667 15.7067 13.6933 15.4533L5.82666 11.96C3.82666 11.0667 3.53333 9.86667 3.53333 9.21334C3.53333 8.56 3.82666 7.36 5.82666 6.46667L13.6933 2.97334C14.8533 2.45334 16.6 2.45334 17.76 2.97334L25.64 6.46667C27.6267 7.34667 27.9333 8.56 27.9333 9.21334C27.9333 9.86667 27.64 11.0667 25.64 11.96L17.76 15.4533C17.1733 15.72 16.4533 15.84 15.72 15.84ZM15.72 4.58667C15.2667 4.58667 14.8267 4.65334 14.5067 4.8L6.63999 8.29334C5.82666 8.66667 5.53333 9.04 5.53333 9.21334C5.53333 9.38667 5.82666 9.77334 6.62666 10.1333L14.4933 13.6267C15.1333 13.9067 16.2933 13.9067 16.9333 13.6267L24.8133 10.1333C25.6267 9.77334 25.92 9.38667 25.92 9.21334C25.92 9.04 25.6267 8.65334 24.8133 8.29334L16.9467 4.8C16.6267 4.66667 16.1733 4.58667 15.72 4.58667Z" fill="#F3F7FE"/>
<path d="M16 22.7867C15.4933 22.7867 14.9867 22.68 14.5067 22.4667L5.45333 18.44C4.08 17.84 3 16.1733 3 14.6667C3 14.12 3.45333 13.6667 4 13.6667C4.54667 13.6667 5 14.12 5 14.6667C5 15.4 5.6 16.32 6.26667 16.6267L15.32 20.6533C15.7467 20.84 16.24 20.84 16.68 20.6533L25.7333 16.6267C26.4 16.3333 27 15.4 27 14.6667C27 14.12 27.4533 13.6667 28 13.6667C28.5467 13.6667 29 14.12 29 14.6667C29 16.1733 27.92 17.84 26.5467 18.4533L17.4933 22.48C17.0133 22.68 16.5067 22.7867 16 22.7867Z" fill="#F3F7FE"/>
<path d="M16 29.4533C15.4933 29.4533 14.9867 29.3467 14.5067 29.1333L5.45333 25.1067C3.96 24.44 3 22.96 3 21.32C3 20.7733 3.45333 20.32 4 20.32C4.54667 20.32 5 20.7867 5 21.3333C5 22.1733 5.49333 22.9467 6.26667 23.2933L15.32 27.32C15.7467 27.5067 16.24 27.5067 16.68 27.32L25.7333 23.2933C26.5067 22.9467 27 22.1867 27 21.3333C27 20.7867 27.4533 20.3333 28 20.3333C28.5467 20.3333 29 20.7867 29 21.3333C29 22.9733 28.04 24.4533 26.5467 25.12L17.4933 29.1467C17.0133 29.3467 16.5067 29.4533 16 29.4533Z" fill="#F3F7FE"/>
</svg>
