<svg width="33" height="46" viewBox="0 0 33 46" fill="none" xmlns="http://www.w3.org/2000/svg">
<path d="M32.5111 20.5873C32.4945 20.8989 32.4235 21.195 32.3073 21.4662L32.2373 21.617L32.0574 22.0059L31.8951 22.357L29.0697 28.4573L29.0526 28.4936L29.0495 28.5009C29.0142 28.5864 28.9924 28.6787 28.9872 28.7762C28.9862 28.7913 28.9862 28.8058 28.9862 28.8208V32.2742H28.9857C28.9857 32.3094 28.9852 32.3452 28.9831 32.381C28.9774 32.4857 28.9639 32.5884 28.9426 32.6879C28.8078 33.3247 28.3692 33.8432 27.7915 34.0983C27.5105 34.2222 27.1958 34.2839 26.8681 34.2663C26.6041 34.2523 26.3547 34.188 26.1286 34.0838C25.6241 33.8515 25.2363 33.4185 25.0621 32.8943C25.0061 32.7247 24.9723 32.5453 24.9646 32.3597V28.6663C24.9646 28.5476 24.9677 28.4283 24.9739 28.308C24.9858 28.0835 25.0086 27.8626 25.0423 27.6448C25.1321 27.0615 25.2975 26.5046 25.5277 25.9835L25.62 25.7854L27.0526 22.6919L27.0516 22.6914C27.091 22.6095 27.1149 22.5182 27.1201 22.4218C27.1403 22.0469 26.8686 21.7233 26.502 21.6679L26.4657 21.6632H26.4652L26.2412 21.6347L12.376 19.865L9.5345 19.5025L9.50183 19.4984C8.20087 19.3262 7.19857 18.2824 7.07205 17.0043C7.0342 16.604 7.01501 16.1985 7.01501 15.7894C7.01501 8.65978 12.7949 2.88037 19.9246 2.88037C25.8746 2.88037 30.8845 6.90563 32.3789 12.3817C32.41 12.4958 32.4395 12.6104 32.4675 12.7255C32.4872 12.8401 32.4976 12.9583 32.4976 13.0791C32.4976 14.2349 31.5606 15.1724 30.4044 15.1724C29.4342 15.1724 28.6175 14.5113 28.3806 13.6153C28.3749 13.5909 28.3686 13.5665 28.3624 13.5427C27.4156 9.78341 24.0115 7.00052 19.9588 7.00052C15.6115 7.00052 12.0115 10.2019 11.3887 14.3764C11.3846 14.4013 11.3809 14.4262 11.3773 14.4516C11.3752 14.4682 11.3726 14.4848 11.3706 14.5019C11.369 14.518 11.368 14.5341 11.3669 14.5501C11.3421 15.0184 11.6552 15.4264 12.0949 15.5426L12.3521 15.5753L12.4444 15.5872L28.4034 17.6239L30.2052 17.8536L30.2281 17.8567C31.1775 17.9817 31.9573 18.6039 32.3104 19.4387C32.4592 19.7908 32.5324 20.1807 32.5111 20.5873Z" fill="#06A4FF"/>
<path d="M20.7444 0.443852C20.7407 0.51437 20.6801 0.568815 20.609 0.564667C20.3633 0.554296 20.1159 0.549111 19.8676 0.549111C10.2859 0.549111 2.51793 8.31704 2.51793 17.8987C2.51793 25.1564 6.97355 31.3735 13.2995 33.9624C13.3472 33.9832 13.3793 34.0314 13.3757 34.0858C13.3721 34.1564 13.3114 34.2108 13.2404 34.2067C13.2362 34.2067 13.2321 34.2061 13.2279 34.2056C13.2279 34.2056 13.2279 34.2056 13.2274 34.2056C13.2207 34.2041 13.2139 34.2025 13.2072 34.201C13.2061 34.2004 13.2046 34.1999 13.203 34.1994C5.62333 32.3416 0 25.5023 0 17.3496C0 7.76793 7.76792 0 17.3496 0C18.4727 0 19.5715 0.107333 20.635 0.311111C20.6972 0.319926 20.7444 0.380592 20.7444 0.443852Z" fill="#FFD429"/>
<path d="M17.1625 38.8168C16.644 38.8168 16.1565 38.4964 15.9688 37.981C15.7288 37.3219 16.0689 36.5929 16.728 36.3533L22.6178 34.2098C23.2768 33.9697 24.0059 34.3098 24.2454 34.9689C24.4855 35.6279 24.1454 36.357 23.4863 36.5965L17.5965 38.7401C17.4534 38.7924 17.3066 38.8168 17.1625 38.8168Z" fill="white"/>
<path d="M20.2154 45.6665C19.6969 45.6665 19.2095 45.346 19.0218 44.8306C18.7817 44.1716 19.1219 43.4425 19.7809 43.203L25.6708 41.0594C26.3298 40.8193 27.0589 41.1595 27.2984 41.8185C27.5385 42.4776 27.1983 43.2066 26.5393 43.4462L20.6494 45.5897C20.5063 45.6416 20.3596 45.6665 20.2154 45.6665Z" fill="white"/>
<path d="M17.8173 42.5538C17.2988 42.5538 16.8114 42.2333 16.6237 41.7179C16.3836 41.0589 16.7238 40.3299 17.3828 40.0903L26.3397 36.8304C26.9987 36.5903 27.7278 36.9305 27.9673 37.5895C28.2074 38.2485 27.8672 38.9776 27.2082 39.2171L18.2513 42.477C18.1082 42.5289 17.9615 42.5538 17.8173 42.5538Z" fill="white"/>
</svg>
