<svg width="28" height="28" viewBox="0 0 28 28" fill="none" xmlns="http://www.w3.org/2000/svg">
<path d="M17.7801 25.9816H17.6284C12.4484 25.9816 9.95172 23.94 9.52006 19.3666C9.47339 18.8883 9.82339 18.4566 10.3134 18.41C10.7801 18.3633 11.2234 18.725 11.2701 19.2033C11.6084 22.8666 13.3351 24.2316 17.6401 24.2316H17.7917C22.5401 24.2316 24.2201 22.5516 24.2201 17.8033V10.1966C24.2201 5.44831 22.5401 3.76831 17.7917 3.76831H17.6401C13.3117 3.76831 11.5851 5.15664 11.2701 8.88998C11.2117 9.36831 10.8034 9.72998 10.3134 9.68331C9.82339 9.64831 9.47339 9.21664 9.50839 8.73831C9.90506 4.09498 12.4134 2.01831 17.6284 2.01831H17.7801C23.5084 2.01831 25.9584 4.46831 25.9584 10.1966V17.8033C25.9584 23.5316 23.5084 25.9816 17.7801 25.9816Z" fill="#EC3F24"/>
<path d="M17.5001 14.875H4.22339C3.74506 14.875 3.34839 14.4783 3.34839 14C3.34839 13.5217 3.74506 13.125 4.22339 13.125H17.5001C17.9784 13.125 18.3751 13.5217 18.3751 14C18.3751 14.4783 17.9784 14.875 17.5001 14.875Z" fill="#EC3F24"/>
<path d="M6.82497 18.7834C6.60331 18.7834 6.38164 18.7017 6.20664 18.5267L2.29831 14.6184C1.95997 14.28 1.95997 13.72 2.29831 13.3817L6.20664 9.47335C6.54497 9.13502 7.10497 9.13502 7.44331 9.47335C7.78164 9.81169 7.78164 10.3717 7.44331 10.71L4.15331 14L7.44331 17.29C7.78164 17.6284 7.78164 18.1884 7.44331 18.5267C7.27997 18.7017 7.04664 18.7834 6.82497 18.7834Z" fill="#EC3F24"/>
</svg>
