<svg width="32" height="32" viewBox="0 0 32 32" fill="none" xmlns="http://www.w3.org/2000/svg">
<path d="M23.9998 10.5467C23.9598 10.5467 23.9331 10.5467 23.8931 10.5467H23.8265C21.3065 10.4667 19.4265 8.52 19.4265 6.12C19.4265 3.66666 21.4265 1.67999 23.8665 1.67999C26.3065 1.67999 28.3065 3.68 28.3065 6.12C28.2931 8.53333 26.4131 10.48 24.0131 10.56C24.0131 10.5467 24.0131 10.5467 23.9998 10.5467ZM23.8665 3.66667C22.5198 3.66667 21.4265 4.76 21.4265 6.10667C21.4265 7.42667 22.4531 8.49334 23.7731 8.54667C23.7865 8.53334 23.8931 8.53334 24.0131 8.54667C25.3065 8.48001 26.3065 7.41334 26.3198 6.10667C26.3198 4.76 25.2265 3.66667 23.8665 3.66667Z" fill="#F3F7FE"/>
<path d="M24.0133 20.3734C23.4933 20.3734 22.9733 20.3334 22.4533 20.24C21.9066 20.1467 21.5466 19.6267 21.64 19.0801C21.7333 18.5334 22.2533 18.1734 22.8 18.2667C24.44 18.5467 26.1733 18.2401 27.3333 17.4667C27.96 17.0534 28.2933 16.5334 28.2933 16.0134C28.2933 15.4934 27.9466 14.9867 27.3333 14.5734C26.1733 13.8 24.4133 13.4934 22.76 13.7867C22.2133 13.8934 21.6933 13.5201 21.6 12.9734C21.5066 12.4267 21.8667 11.9067 22.4133 11.8134C24.5867 11.4267 26.84 11.84 28.44 12.9067C29.6133 13.6934 30.2933 14.8134 30.2933 16.0134C30.2933 17.2001 29.6266 18.3334 28.44 19.1334C27.2267 19.9334 25.6533 20.3734 24.0133 20.3734Z" fill="#F3F7FE"/>
<path d="M7.95996 10.5467C7.94662 10.5467 7.93329 10.5467 7.93329 10.5467C5.53329 10.4667 3.65329 8.52002 3.63995 6.12002C3.63995 3.66668 5.63996 1.66669 8.07996 1.66669C10.52 1.66669 12.52 3.66669 12.52 6.10669C12.52 8.52002 10.64 10.4667 8.23995 10.5467L7.95996 9.54669L8.05329 10.5467C8.02662 10.5467 7.98662 10.5467 7.95996 10.5467ZM8.09329 8.54669C8.17329 8.54669 8.23996 8.54668 8.31996 8.56002C9.50662 8.50668 10.5466 7.44002 10.5466 6.12002C10.5466 4.77335 9.45329 3.68001 8.10662 3.68001C6.75996 3.68001 5.66662 4.77335 5.66662 6.12002C5.66662 7.42668 6.67995 8.48002 7.97329 8.56002C7.98662 8.54668 8.03995 8.54669 8.09329 8.54669Z" fill="#F3F7FE"/>
<path d="M7.94669 20.3734C6.30669 20.3734 4.73335 19.9334 3.52002 19.1334C2.34669 18.3467 1.66669 17.2134 1.66669 16.0134C1.66669 14.8267 2.34669 13.6934 3.52002 12.9067C5.12002 11.84 7.37335 11.4267 9.54669 11.8134C10.0934 11.9067 10.4534 12.4267 10.36 12.9734C10.2667 13.5201 9.74669 13.8934 9.20002 13.7867C7.54669 13.4934 5.80002 13.8 4.62669 14.5734C4.00002 14.9867 3.66669 15.4934 3.66669 16.0134C3.66669 16.5334 4.01336 17.0534 4.62669 17.4667C5.78669 18.2401 7.52002 18.5467 9.16002 18.2667C9.70669 18.1734 10.2267 18.5467 10.32 19.0801C10.4134 19.6267 10.0534 20.1467 9.50669 20.24C8.98669 20.3334 8.46669 20.3734 7.94669 20.3734Z" fill="#F3F7FE"/>
<path d="M15.9998 20.5066C15.9598 20.5066 15.9331 20.5066 15.8931 20.5066H15.8265C13.3065 20.4266 11.4265 18.48 11.4265 16.08C11.4265 13.6266 13.4265 11.64 15.8665 11.64C18.3065 11.64 20.3065 13.64 20.3065 16.08C20.2931 18.4933 18.4131 20.44 16.0131 20.52C16.0131 20.5066 16.0131 20.5066 15.9998 20.5066ZM15.8665 13.6266C14.5198 13.6266 13.4265 14.72 13.4265 16.0666C13.4265 17.3866 14.4531 18.4533 15.7731 18.5066C15.7865 18.4933 15.8931 18.4933 16.0131 18.5066C17.3065 18.44 18.3065 17.3733 18.3198 16.0666C18.3198 14.7333 17.2265 13.6266 15.8665 13.6266Z" fill="#F3F7FE"/>
<path d="M15.9997 30.3466C14.3997 30.3466 12.7997 29.9333 11.5597 29.0933C10.3864 28.3067 9.70636 27.1867 9.70636 25.9867C9.70636 24.8 10.373 23.6533 11.5597 22.8666C14.053 21.2133 17.9597 21.2133 20.4397 22.8666C21.613 23.6533 22.293 24.7733 22.293 25.9733C22.293 27.16 21.6264 28.3067 20.4397 29.0933C19.1997 29.92 17.5997 30.3466 15.9997 30.3466ZM12.6664 24.5467C12.0397 24.96 11.7064 25.48 11.7064 26C11.7064 26.52 12.053 27.0267 12.6664 27.44C14.4664 28.6533 17.5197 28.6533 19.3197 27.44C19.9464 27.0267 20.2797 26.5067 20.2797 25.9867C20.2797 25.4667 19.933 24.96 19.3197 24.5467C17.533 23.3333 14.4797 23.3467 12.6664 24.5467Z" fill="#F3F7FE"/>
</svg>
