<svg width="32" height="32" viewBox="0 0 32 32" fill="none" xmlns="http://www.w3.org/2000/svg">
<path d="M4.40035 30.3333C3.92035 30.3333 3.45367 30.2133 3.05367 29.9733C2.16034 29.4533 1.65369 28.4133 1.65369 27.12V11.9733C1.65369 9.13335 3.96033 6.82666 6.80033 6.82666H17.1737C20.0137 6.82666 22.3204 9.13335 22.3204 11.9733V27.12C22.3204 28.4133 21.8137 29.44 20.9204 29.9733C20.027 30.4933 18.8804 30.44 17.747 29.8133L12.507 26.8934C12.2537 26.7467 11.7203 26.7467 11.467 26.8934L6.22701 29.8133C5.61368 30.16 4.98702 30.3333 4.40035 30.3333ZM6.81368 8.84001C5.08035 8.84001 3.66703 10.2533 3.66703 11.9867V27.1333C3.66703 27.68 3.82703 28.1067 4.08036 28.2533C4.3337 28.4 4.78705 28.3333 5.26705 28.0667L10.507 25.1466C11.3604 24.68 12.6404 24.68 13.4937 25.1466L18.7337 28.0667C19.2137 28.3333 19.6537 28.4 19.9204 28.2533C20.1737 28.1067 20.3337 27.68 20.3337 27.1333V11.9867C20.3337 10.2533 18.9204 8.84001 17.1871 8.84001H6.81368Z" fill="#F3F7FE"/>
<path d="M19.5866 30.3333C19 30.3333 18.3866 30.16 17.76 29.8267L12.52 26.9067C12.2666 26.7733 11.7199 26.7733 11.4666 26.9067L6.23995 29.8267C5.10662 30.4533 3.94661 30.5067 3.06661 29.9867C2.17328 29.4667 1.66663 28.4267 1.66663 27.1467V12C1.66663 9.16001 3.97327 6.85336 6.81327 6.85336H17.1866C20.0266 6.85336 22.3333 9.16001 22.3333 12V27.1467C22.3333 28.4267 21.8266 29.4667 20.9333 29.9867C20.5333 30.2133 20.08 30.3333 19.5866 30.3333ZM12 24.8C12.5333 24.8 13.0533 24.92 13.4933 25.16L18.7333 28.08C19.2133 28.3467 19.6666 28.4133 19.92 28.2533C20.1733 28.1067 20.3333 27.68 20.3333 27.1334V11.9867C20.3333 10.2533 18.92 8.84002 17.1866 8.84002H6.81327C5.07994 8.84002 3.66663 10.2533 3.66663 11.9867V27.1334C3.66663 27.68 3.82662 28.1067 4.07996 28.2533C4.33329 28.4 4.78664 28.3333 5.26664 28.0667L10.5066 25.1467C10.9333 24.92 11.4666 24.8 12 24.8Z" fill="#F3F7FE"/>
<path d="M27.5866 25.16C27 25.16 26.3866 24.9867 25.76 24.6533L20.84 21.9067C20.52 21.7333 20.3333 21.4 20.3333 21.04V12C20.3333 10.2667 18.92 8.85336 17.1866 8.85336H10.6666C10.12 8.85336 9.66663 8.40003 9.66663 7.85336V6.82667C9.66663 3.98667 11.9733 1.68002 14.8133 1.68002H25.1866C28.0266 1.68002 30.3333 3.98667 30.3333 6.82667V21.9734C30.3333 23.2534 29.8266 24.2933 28.9333 24.8133C28.5333 25.04 28.08 25.16 27.5866 25.16ZM22.3333 20.44L26.7333 22.9067C27.2133 23.1733 27.6533 23.24 27.92 23.08C28.1866 22.92 28.3333 22.5067 28.3333 21.96V6.81332C28.3333 5.07999 26.92 3.66668 25.1866 3.66668H14.8133C13.0799 3.66668 11.6666 5.07999 11.6666 6.81332V6.84002H17.1866C20.0266 6.84002 22.3333 9.14666 22.3333 11.9867V20.44V20.44Z" fill="#F3F7FE"/>
</svg>
