<svg width="32" height="32" viewBox="0 0 32 32" fill="none" xmlns="http://www.w3.org/2000/svg">
<path d="M17.1734 27.8133H9.08002C4.34669 27.8133 2.66669 24.4933 2.66669 21.4V10.6C2.66669 5.98664 4.46669 4.18665 9.08002 4.18665H17.1734C21.7867 4.18665 23.5867 5.98664 23.5867 10.6V21.4C23.5867 26.0133 21.7867 27.8133 17.1734 27.8133ZM9.08002 6.21331C5.60002 6.21331 4.69335 7.11998 4.69335 10.6V21.4C4.69335 23.04 5.26669 25.7866 9.08002 25.7866H17.1734C20.6534 25.7866 21.56 24.88 21.56 21.4V10.6C21.56 7.11998 20.6534 6.21331 17.1734 6.21331H9.08002Z" fill="#F3F7FE"/>
<path d="M27.7066 24.1467C27.1332 24.1467 26.3999 23.96 25.5599 23.3734L21.9999 20.88C21.7332 20.6934 21.5732 20.3867 21.5732 20.0534V11.9467C21.5732 11.6134 21.7332 11.3067 21.9999 11.12L25.5599 8.6267C27.1466 7.52003 28.3066 7.84003 28.8532 8.12003C29.3999 8.41337 30.3332 9.17337 30.3332 11.1067V20.88C30.3332 22.8134 29.3999 23.5867 28.8532 23.8667C28.5999 24.0134 28.1999 24.1467 27.7066 24.1467ZM23.5866 19.52L26.7199 21.7067C27.3199 22.12 27.7466 22.16 27.9199 22.0667C28.1066 21.9734 28.3066 21.6 28.3066 20.88V11.12C28.3066 10.3867 28.0932 10.0267 27.9199 9.93337C27.7466 9.84003 27.3199 9.88003 26.7199 10.2934L23.5866 12.48V19.52Z" fill="#F3F7FE"/>
<path d="M15.3333 15.6666C13.68 15.6666 12.3333 14.32 12.3333 12.6666C12.3333 11.0133 13.68 9.66663 15.3333 9.66663C16.9866 9.66663 18.3333 11.0133 18.3333 12.6666C18.3333 14.32 16.9866 15.6666 15.3333 15.6666ZM15.3333 11.6666C14.7866 11.6666 14.3333 12.12 14.3333 12.6666C14.3333 13.2133 14.7866 13.6666 15.3333 13.6666C15.88 13.6666 16.3333 13.2133 16.3333 12.6666C16.3333 12.12 15.88 11.6666 15.3333 11.6666Z" fill="#F3F7FE"/>
</svg>
