<svg width="32" height="32" viewBox="0 0 32 32" fill="none" xmlns="http://www.w3.org/2000/svg">
<path d="M17.1734 27.8133H9.08002C4.34669 27.8133 2.66669 24.4933 2.66669 21.4V10.6C2.66669 5.98667 4.46669 4.18667 9.08002 4.18667H17.1734C21.7867 4.18667 23.5867 5.98667 23.5867 10.6V21.4C23.5867 26.0133 21.7867 27.8133 17.1734 27.8133ZM9.08002 6.21333C5.60002 6.21333 4.69335 7.12 4.69335 10.6V21.4C4.69335 23.04 5.26669 25.7867 9.08002 25.7867H17.1734C20.6534 25.7867 21.56 24.88 21.56 21.4V10.6C21.56 7.12 20.6534 6.21333 17.1734 6.21333H9.08002Z" fill="#F3F7FE"/>
<path d="M27.7066 24.1467C27.1332 24.1467 26.3999 23.96 25.5599 23.3733L21.9999 20.88C21.7332 20.6933 21.5732 20.3867 21.5732 20.0533V11.9467C21.5732 11.6133 21.7332 11.3067 21.9999 11.12L25.5599 8.62667C27.1466 7.52 28.3066 7.84 28.8532 8.12C29.3999 8.41334 30.3332 9.17334 30.3332 11.1067V20.88C30.3332 22.8133 29.3999 23.5867 28.8532 23.8667C28.5999 24.0133 28.1999 24.1467 27.7066 24.1467ZM23.5866 19.52L26.7199 21.7067C27.3199 22.12 27.7466 22.16 27.9199 22.0667C28.1066 21.9733 28.3066 21.6 28.3066 20.88V11.12C28.3066 10.3867 28.0932 10.0267 27.9199 9.93334C27.7466 9.84 27.3199 9.88 26.7199 10.2933L23.5866 12.48V19.52Z" fill="#F3F7FE"/>
<path d="M15.3333 15.6667C13.68 15.6667 12.3333 14.32 12.3333 12.6667C12.3333 11.0133 13.68 9.66667 15.3333 9.66667C16.9866 9.66667 18.3333 11.0133 18.3333 12.6667C18.3333 14.32 16.9866 15.6667 15.3333 15.6667ZM15.3333 11.6667C14.7866 11.6667 14.3333 12.12 14.3333 12.6667C14.3333 13.2133 14.7866 13.6667 15.3333 13.6667C15.88 13.6667 16.3333 13.2133 16.3333 12.6667C16.3333 12.12 15.88 11.6667 15.3333 11.6667Z" fill="#F3F7FE"/>
</svg>
